<svg width="247" height="47" viewBox="0 0 247 47" fill="none" xmlns="http://www.w3.org/2000/svg">
<path d="M15.0524 0.0342271C15.0557 0.0930192 15.062 0.151809 15.062 0.210601C15.0625 1.82079 15.0602 3.43097 15.0661 5.04112C15.0667 5.19486 15.0202 5.2241 14.8775 5.21859C13.997 5.18472 13.1167 5.19042 12.2379 5.26296C11.8377 5.29601 11.4436 5.36361 11.0568 5.47542C10.5154 5.63183 10.1864 5.98289 10.0413 6.52688C9.92777 6.95277 9.87565 7.38671 9.87585 7.82255C9.8764 9.30174 9.96552 10.7799 9.93444 12.2597C9.89551 12.3614 9.79646 12.3841 9.71279 12.4222C8.45311 12.9967 7.2689 13.6937 6.19866 14.5781C5.8829 14.8391 5.66552 15.1803 5.43896 15.5111C4.99153 16.1643 4.61423 16.8531 4.47256 17.6467C4.3934 18.0902 4.35781 18.5376 4.34192 18.9878C4.30722 19.9694 4.24451 20.9483 4.08329 21.9196C3.98934 22.4855 3.95681 23.0594 3.91171 23.6316C3.84001 24.5418 3.84739 25.4526 3.84633 26.3638C3.84618 26.5118 3.84885 26.659 3.86984 26.8066C3.88209 26.8925 3.91898 26.9986 3.79861 27.0514C3.78837 27.0454 3.77412 27.0404 3.77043 27.0308C3.66604 26.7585 3.42383 26.6894 3.17847 26.6088C2.35001 26.3368 1.50919 26.1244 0.639964 26.0351C0.539576 26.0247 0.438952 26.0315 0.338682 26.026C0.220909 26.0195 0.101369 26.017 0 25.9425V25.9069C0.031592 25.8581 0.0176213 25.8033 0.0176606 25.7513C0.0184455 24.1611 0.0184455 22.5709 0.0176606 20.9807C0.0176213 20.9287 0.031592 20.874 0 20.8251V20.7895C0.0860636 20.7173 0.190219 20.7353 0.289076 20.7347C0.910359 20.731 1.52901 20.691 2.14194 20.5875C2.62241 20.5064 3.08118 20.3583 3.52096 20.1427C3.73405 20.0382 3.81827 19.9051 3.81772 19.6614C3.81027 16.346 3.81266 13.0307 3.8129 9.7153C3.8129 9.62656 3.8054 9.53699 3.82306 9.44959C3.8326 9.40239 3.8326 9.33696 3.9134 9.35158C3.92565 9.39827 3.92066 9.44586 3.92066 9.49302C3.92086 12.9141 3.9209 16.3352 3.92058 19.7562C3.92058 19.8003 3.92533 19.8456 3.91952 19.8756C3.93593 19.8526 3.92113 19.8094 3.92113 19.7707C3.92204 16.3556 3.922 12.9404 3.92184 9.52528C3.92184 9.43729 3.93538 9.34655 3.87573 9.2696C3.81082 9.14486 3.85638 9.01313 3.85658 8.88509C3.85838 7.68083 3.96218 6.48754 4.24373 5.31315C4.67016 3.53453 5.66819 2.19496 7.27577 1.3117C8.40315 0.692298 9.62629 0.395624 10.8826 0.2029C11.701 0.0773382 12.5247 0.0204331 13.3525 0.0183503C13.4913 0.00750385 13.6319 0.0406332 13.7693 -3.47387e-06H13.8758C14.0334 0.0401602 14.1937 0.00793364 14.3525 0.0183503C14.5858 0.0275056 14.8198 -0.000710464 15.0524 0.0342271Z" fill="#FF0079"/>
<path d="M35.7088 12.3334C35.6814 11.107 35.7999 9.88483 35.8115 8.65962C35.8174 8.03853 35.812 7.41795 35.67 6.80787C35.4543 5.88079 35.0891 5.53632 34.1568 5.36655C33.1914 5.19068 32.2166 5.19862 31.2415 5.20597C31.0464 5.20746 30.8512 5.211 30.6562 5.2178C30.5796 5.22047 30.5374 5.20919 30.5376 5.11476C30.5422 3.42715 30.5437 1.73955 30.5461 0.0519451C30.5461 0.0463247 30.5494 0.0406663 30.5512 0.0350078C30.9238 -0.00264325 31.2974 0.0283626 31.6703 0.018302C31.7776 0.0183427 31.885 0.0182638 31.9922 0.018302C32.0926 0.00973417 32.1953 0.0375204 32.2941 -1.11131e-05H32.365C32.5057 0.0413326 32.6496 0.00714272 32.7916 0.018302C34.3543 0.0263993 35.8744 0.261176 37.3292 0.858255C38.2312 1.22838 39.0516 1.72764 39.7479 2.41071C40.3053 2.95764 40.735 3.60101 41.0649 4.31214C41.4387 5.11778 41.6415 5.96186 41.6841 6.84807C41.7151 7.49187 41.7639 8.13564 41.7478 8.7802C41.6715 11.8462 41.7436 14.9127 41.7083 17.9787C41.7017 18.5468 41.7004 19.1118 41.7458 19.6782C41.765 19.9167 41.8493 20.0605 42.0857 20.1518C42.8029 20.4288 43.5401 20.6023 44.3053 20.6697C44.6879 20.7035 45.072 20.7033 45.4542 20.7393C45.5081 20.7443 45.5598 20.7518 45.6021 20.7895V20.8251C45.5705 20.8739 45.5844 20.9287 45.5844 20.9807C45.5836 22.5709 45.5836 24.1611 45.5844 25.7513C45.5844 25.8033 45.5705 25.858 45.6021 25.9069V25.9425C45.4317 26.0244 45.2453 26.0169 45.0657 26.024C43.9745 26.0673 42.9376 26.3122 41.9716 26.8329C41.9196 26.8609 41.8677 26.8904 41.8051 26.8857C41.7332 26.8639 41.7301 26.8017 41.7238 26.743C41.7181 26.69 41.719 26.6365 41.7205 26.5833C41.7332 26.1406 41.7368 25.6987 41.7301 25.2551C41.7093 23.8854 41.5819 22.5276 41.3886 21.1735C41.3319 20.7757 41.3094 20.3741 41.2906 19.9718C41.2565 19.246 41.2642 18.516 41.1305 17.7977C40.9589 16.8758 40.5097 16.0807 40.002 15.309C39.5412 14.6085 38.8575 14.1712 38.1833 13.7238C37.4576 13.2422 36.6836 12.8457 35.8923 12.4832C35.8193 12.4498 35.7305 12.4316 35.7088 12.3334Z" fill="#FF0079"/>
<path d="M41.7077 30.3041C41.7017 31.7548 41.6971 33.2054 41.6893 34.6561C41.6821 35.9762 41.6854 37.2966 41.6578 38.6163C41.6343 39.7397 41.5482 40.8607 41.1873 41.9361C40.6749 43.4632 39.6588 44.5611 38.2524 45.3117C37.3236 45.8074 36.3263 46.1034 35.2985 46.3077C34.2597 46.5143 33.208 46.6036 32.153 46.6664C32.0127 46.7038 31.8658 46.6483 31.7262 46.6965H31.6198C31.5233 46.6579 31.4226 46.6876 31.3243 46.6781C31.2404 46.6781 31.1567 46.6782 31.0729 46.6781C30.8988 46.6682 30.7235 46.6985 30.5502 46.6619C30.5467 46.6032 30.5401 46.5444 30.5401 46.4857C30.5395 44.8876 30.5418 43.2895 30.5358 41.6914C30.5353 41.5459 30.5756 41.5178 30.7126 41.5213C31.6877 41.5457 32.6623 41.5345 33.6303 41.3974C34.0448 41.3386 34.4501 41.2407 34.8289 41.0498C35.3577 40.7834 35.5552 40.3044 35.663 39.7666C35.7978 39.0945 35.7954 38.4119 35.7628 37.7342C35.7007 36.4445 35.715 35.1548 35.71 33.865C35.7093 33.6756 35.7092 33.4862 35.7088 33.2968C35.8202 33.3064 35.8253 33.4042 35.8488 33.4776C35.9828 33.8954 36.1439 34.3025 36.3185 34.7045C36.4607 35.0322 36.6268 35.35 36.8867 35.5981C37.3282 36.0196 37.7908 36.0461 38.3813 35.7946C38.9256 35.5628 39.2847 35.1217 39.6169 34.6542C40.5907 33.2838 41.1298 31.743 41.4029 30.0976C41.4775 29.6479 41.5432 29.1972 41.5913 28.7437C41.6016 28.6465 41.578 28.5261 41.6865 28.4565C41.7077 28.4663 41.7172 28.4827 41.7156 28.506C41.7104 29.1056 41.7259 29.705 41.7077 30.3041Z" fill="#FF0079"/>
<path d="M13.2363 46.6665C12.3118 46.6042 11.3894 46.5243 10.4783 46.3448C9.17265 46.0876 7.92538 45.68 6.82111 44.9106C5.54071 44.0186 4.7424 42.7819 4.25741 41.3167C3.85629 40.105 3.74126 38.8562 3.78863 37.5939C3.89648 34.7191 3.87674 31.8435 3.87952 28.9679C3.8796 28.8617 3.89196 28.7554 3.89864 28.6492C3.88792 28.6038 3.86312 28.5549 3.92917 28.5293C4.02022 28.6243 4.00134 28.7513 4.01339 28.8635C4.15942 30.227 4.41788 31.5657 4.8774 32.8608C5.12613 33.5618 5.44189 34.2297 5.91397 34.8095C6.27537 35.2533 6.68866 35.6371 7.24291 35.8392C7.90199 36.0795 8.43666 35.9274 8.85312 35.3655C9.09118 35.0444 9.25228 34.6823 9.40224 34.3147C9.54081 33.9751 9.67287 33.633 9.80022 33.289C9.8251 33.2219 9.83314 33.1327 9.93165 33.1186C9.9497 34.4743 9.91175 35.8283 9.84527 37.1826C9.803 38.0439 9.79186 38.9085 9.96975 39.7623C10.1683 40.7152 10.5954 41.1404 11.551 41.3295C12.637 41.5444 13.7361 41.5326 14.835 41.5244C15.0626 41.5227 15.0625 41.5179 15.0625 41.7428C15.0625 43.3238 15.0627 44.9047 15.0618 46.4856C15.0618 46.5559 15.0521 46.6262 15.047 46.6965H14.3372C14.2094 46.6575 14.0783 46.6877 13.9491 46.6781C13.8778 46.6781 13.8065 46.6782 13.7351 46.6781C13.6731 46.6781 13.6111 46.6782 13.549 46.6781C13.4449 46.6719 13.3398 46.6916 13.2363 46.6665Z" fill="#FF0079"/>
<path d="M9.93159 33.1186C9.80122 33.3387 9.748 33.5895 9.65185 33.8233C9.45869 34.2931 9.28786 34.7732 9.01719 35.2069C8.78565 35.578 8.50136 35.8848 8.04749 35.9781C7.75806 36.0376 7.48343 35.9785 7.21535 35.876C6.54752 35.6209 6.06599 35.1425 5.67177 34.565C5.08369 33.7033 4.74332 32.7346 4.47948 31.7363C4.20241 30.6882 4.0368 29.6198 3.93257 28.5414C3.90902 28.5313 3.94265 28.454 3.87668 28.4937C3.90937 28.2075 3.87358 27.9221 3.86656 27.6364C3.86165 27.4372 3.83336 27.2408 3.80282 27.0447C3.84336 27.0053 3.8259 26.9558 3.82382 26.9104C3.74827 25.2692 3.78069 23.6285 4.02522 22.0047C4.20916 20.7834 4.25453 19.5564 4.32925 18.3294C4.39393 17.2678 4.82429 16.3531 5.39078 15.4743C5.88691 14.7045 6.58351 14.1739 7.32394 13.6802C8.10224 13.1612 8.92724 12.7274 9.77614 12.3375C9.82955 12.313 9.88171 12.2857 9.93446 12.2597C10.4389 12.0605 10.9395 11.8504 11.4488 11.6644C12.5465 11.2637 13.6624 10.9231 14.8099 10.693C14.9041 10.6741 14.9951 10.6658 15.0408 10.5426C15.3341 9.75333 15.9421 9.29023 16.6947 8.99442C17.3787 8.72557 18.0979 8.59541 18.8223 8.48997C19.2996 8.42053 19.775 8.33784 20.2521 8.26628C20.4904 8.23055 20.7297 8.19656 20.9699 8.17911C21.5869 8.13427 22.2031 8.0587 22.8227 8.07304C23.6304 8.09175 24.4395 8.10318 25.244 8.17923C26.3188 8.28082 27.3837 8.44532 28.3963 8.84638C29.1719 9.15351 29.8671 9.57393 30.3613 10.2713C30.3681 10.2809 30.3797 10.2884 30.3833 10.2989C30.4997 10.6422 30.7803 10.7215 31.0987 10.7965C32.6179 11.1543 34.0905 11.6577 35.5241 12.2756C35.583 12.301 35.6471 12.3143 35.7088 12.3333C35.9257 12.4397 36.1423 12.5466 36.3596 12.6522C37.4467 13.1805 38.4832 13.7887 39.4186 14.5622C39.66 14.7619 39.8444 15.0041 40.0196 15.2566C40.5211 15.9795 40.9442 16.7408 41.1429 17.6087C41.2517 18.0836 41.2959 18.568 41.3012 19.0523C41.314 20.2149 41.4641 21.3633 41.6111 22.5134C41.6981 23.194 41.7409 23.8799 41.7639 24.5658C41.7878 25.2815 41.8079 25.9977 41.7737 26.714C41.771 26.7705 41.7515 26.8328 41.7971 26.8841C41.7524 27.0497 41.7466 27.2207 41.7393 27.3895C41.7263 27.6878 41.729 27.9868 41.7251 28.2855C41.6804 28.3382 41.7156 28.4156 41.6689 28.4677C41.5162 29.9411 41.278 31.3966 40.7088 32.7757C40.3689 33.5992 39.917 34.3619 39.3649 35.0603C39.0014 35.5201 38.5544 35.8649 37.9547 35.9739C37.4697 36.062 37.0851 35.8988 36.7693 35.5398C36.5522 35.2931 36.4028 35.0044 36.2711 34.7062C36.0899 34.2955 35.9251 33.8783 35.788 33.4505C35.7701 33.3948 35.7634 33.3336 35.7088 33.2969C35.6854 32.9756 35.5566 32.6799 35.4835 32.3706C35.2908 31.5557 35.0917 30.7423 34.8829 29.9315C34.6396 28.9864 34.3585 28.0543 33.8952 27.1872C33.8172 27.0412 33.7428 27.0001 33.5786 27.0453C32.8506 27.2456 32.1046 27.3473 31.3565 27.4403C30.8838 27.4992 30.4112 27.5747 29.9599 27.7378C29.2589 27.9912 28.7938 28.5001 28.4611 29.1472C28.0901 29.8688 27.8735 30.6409 27.7553 31.4385C27.5523 32.8088 27.3104 34.171 26.9971 35.5207C26.6916 36.8369 26.3921 38.155 25.9459 39.4323C25.646 40.291 25.3443 41.151 24.9166 41.9577C24.622 42.5135 24.2582 43.0148 23.6879 43.3184C22.9184 43.7281 22.2234 43.7336 21.5281 43.0825C21.0076 42.5951 20.666 41.9898 20.3733 41.3535C19.5022 39.4597 19.0001 37.4494 18.5235 35.4314C18.3201 34.5704 18.1913 33.6967 18.0569 32.8232C17.8974 31.7866 17.7492 30.7456 17.3865 29.7528C17.182 29.1933 16.9122 28.674 16.5038 28.2295C16.1764 27.8732 15.7693 27.6781 15.3096 27.5829C14.48 27.4112 13.6487 27.2478 12.8166 27.089C12.5202 27.0325 12.2179 27.0314 11.9164 27.0452C11.7664 27.0521 11.673 27.1113 11.628 27.2724C11.306 28.426 10.9777 29.5779 10.6466 30.729C10.4393 31.4493 10.2274 32.1684 9.98622 32.8783C9.95965 32.9565 9.93077 33.0342 9.93159 33.1186Z" fill="white"/>
<path d="M11.8303 24.1022C9.38615 24.0938 7.44295 22.1294 7.4528 19.6769C7.46241 17.2851 9.44317 15.3231 11.8414 15.33C14.2872 15.3369 16.2279 17.3088 16.2179 19.7767C16.2082 22.1561 14.2258 24.1104 11.8303 24.1022Z" fill="#FF0079"/>
<path d="M33.8703 17.9947C33.1471 17.9938 32.5556 17.3998 32.5542 16.673C32.5527 15.9146 33.145 15.3218 33.9006 15.3252C34.6348 15.3285 35.2239 15.9205 35.227 16.6581C35.2302 17.4063 34.632 17.9956 33.8703 17.9947Z" fill="#FF0079"/>
<path d="M33.8877 24.1085C33.1415 24.1077 32.5516 23.5138 32.5545 22.7662C32.5573 22.0287 33.1479 21.4385 33.8838 21.4377C34.6293 21.4369 35.2246 22.028 35.227 22.7717C35.2295 23.5137 34.6328 24.1093 33.8877 24.1085Z" fill="#FF0079"/>
<path d="M30.8073 21.0523C30.058 21.052 29.4746 20.4646 29.4763 19.7122C29.4779 18.9649 30.0681 18.3801 30.8191 18.3816C31.5528 18.383 32.143 18.9771 32.1436 19.7148C32.1442 20.4638 31.5559 21.0526 30.8073 21.0523Z" fill="#FF0079"/>
<path d="M36.8509 21.0505C36.1122 21.0498 35.5259 20.462 35.5247 19.721C35.5235 18.9752 36.1171 18.3816 36.8629 18.3828C37.5924 18.384 38.2005 18.9924 38.1944 19.715C38.1881 20.4655 37.5989 21.0512 36.8509 21.0505Z" fill="#FF0079"/>
<path d="M12.5352 18.0176C12.5352 18.29 12.5454 18.5629 12.5313 18.8346C12.5231 18.9923 12.5822 19.0163 12.7222 19.0143C13.272 19.0064 13.8221 19.0149 14.372 19.0082C14.4964 19.0067 14.5313 19.0414 14.5284 19.1656C14.5201 19.5267 14.5184 19.8882 14.529 20.2492C14.5331 20.3904 14.481 20.4135 14.3558 20.4122C13.8059 20.4061 13.2559 20.413 12.706 20.407C12.5757 20.4056 12.5309 20.4432 12.5325 20.5776C12.5389 21.1342 12.5316 21.691 12.5378 22.2476C12.5393 22.3772 12.5179 22.4333 12.3687 22.4281C12.0143 22.4158 11.6591 22.4192 11.3045 22.4267C11.1721 22.4296 11.131 22.3863 11.1325 22.254C11.1388 21.7033 11.1289 21.1524 11.139 20.6019C11.142 20.4394 11.0875 20.4039 10.9361 20.4063C10.3922 20.4146 9.84801 20.4063 9.304 20.412C9.18407 20.4133 9.13898 20.3854 9.14192 20.2565C9.15028 19.8895 9.14973 19.5221 9.14204 19.1551C9.13956 19.0356 9.1792 19.0077 9.29207 19.0088C9.84793 19.0139 10.4039 19.007 10.9597 19.0141C11.094 19.0158 11.1413 18.9868 11.1389 18.841C11.1296 18.2845 11.1392 17.7277 11.1321 17.1711C11.1305 17.0441 11.1684 17.0127 11.291 17.0154C11.6575 17.0234 12.0243 17.023 12.3908 17.0156C12.5087 17.0132 12.5407 17.0502 12.5376 17.1649C12.5301 17.449 12.5352 17.7333 12.5352 18.0176Z" fill="white"/>
<path d="M66.1447 28.8217C65.542 29.4914 64.6602 30.0309 63.4993 30.4402C62.3385 30.8494 61.066 31.0541 59.682 31.0541C57.5538 31.0541 55.8535 30.403 54.581 29.1007C53.3085 27.7985 52.6277 25.9866 52.5384 23.6649L52.5272 22.2585C52.5272 20.6586 52.81 19.2634 53.3755 18.0728C53.9411 16.8748 54.7484 15.9558 55.7976 15.3158C56.8543 14.6684 58.0747 14.3447 59.4587 14.3447C61.4828 14.3447 63.0529 14.8098 64.1691 15.74C65.2927 16.6627 65.9475 18.043 66.1335 19.881H62.3608C62.2269 18.9732 61.9367 18.3258 61.4902 17.9389C61.0437 17.5519 60.4112 17.3585 59.5927 17.3585C58.6104 17.3585 57.8514 17.7752 57.3157 18.6086C56.7799 19.442 56.5083 20.6326 56.5008 22.1804V23.1626C56.5008 24.7848 56.7762 26.0052 57.3268 26.8237C57.8849 27.6348 58.7593 28.0404 59.9499 28.0404C60.9693 28.0404 61.7283 27.8134 62.2269 27.3595V24.8369H59.5034V22.1469H66.1447V28.8217ZM77.6526 27.7948H72.2837L71.3461 30.8308H67.1604L73.1209 14.5791H76.8043L82.8094 30.8308H78.6014L77.6526 27.7948ZM73.2213 24.7699H76.715L74.9626 19.1332L73.2213 24.7699ZM89.1493 14.5791L92.7769 25.8861L96.3934 14.5791H101.55V30.8308H97.6212V27.0358L98.0007 19.2671L94.0717 30.8308H91.4822L87.542 19.256L87.9215 27.0358V30.8308H84.0037V14.5791H89.1493ZM114.13 23.944H107.968V27.8171H115.246V30.8308H104.05V14.5791H115.268V17.604H107.968V21.0307H114.13V23.944ZM116.842 30.8308V14.5791H122.077C123.513 14.5791 124.804 14.9066 125.95 15.5614C127.096 16.2088 127.989 17.1278 128.629 18.3184C129.276 19.5015 129.604 20.8298 129.611 22.3032V23.051C129.611 24.5393 129.295 25.875 128.662 27.0581C128.037 28.2338 127.152 29.1566 126.006 29.8263C124.867 30.4885 123.595 30.8234 122.188 30.8308H116.842ZM120.76 17.604V27.8171H122.122C123.245 27.8171 124.108 27.419 124.711 26.6228C125.314 25.8192 125.615 24.6286 125.615 23.051V22.3478C125.615 20.7777 125.314 19.5945 124.711 18.7983C124.108 18.0021 123.23 17.604 122.077 17.604H120.76ZM141.699 23.944H135.538V27.8171H142.816V30.8308H131.62V14.5791H142.838V17.604H135.538V21.0307H141.699V23.944ZM150.718 26.4107L153.955 14.5791H158.331L152.861 30.8308H148.575L143.151 14.5791H147.492L150.718 26.4107Z" fill="white"/>
<path d="M164.671 14.5791L168.298 25.8861L171.915 14.5791H177.071V30.8308H173.142V27.0358L173.522 19.2671L169.593 30.8308H167.003L163.063 19.256L163.443 27.0358V30.8308H159.525V14.5791H164.671ZM192.72 25.328C192.668 26.4591 192.363 27.46 191.805 28.3306C191.247 29.1938 190.462 29.8635 189.45 30.3397C188.445 30.816 187.296 31.0541 186.001 31.0541C183.865 31.0541 182.184 30.3583 180.956 28.9668C179.728 27.5753 179.114 25.6108 179.114 23.0733V22.2697C179.114 20.6773 179.389 19.2857 179.94 18.0951C180.498 16.8971 181.298 15.9744 182.34 15.327C183.382 14.6722 184.587 14.3447 185.956 14.3447C187.928 14.3447 189.513 14.8656 190.711 15.9074C191.909 16.9417 192.59 18.3705 192.754 20.1936H188.847C188.817 19.2039 188.568 18.4932 188.099 18.0617C187.631 17.6301 186.916 17.4143 185.956 17.4143C184.982 17.4143 184.267 17.7789 183.813 18.5081C183.359 19.2374 183.121 20.4019 183.099 22.0018V23.1515C183.099 24.8853 183.315 26.1242 183.746 26.8684C184.185 27.6125 184.937 27.9846 186.001 27.9846C186.901 27.9846 187.59 27.7725 188.066 27.3483C188.542 26.9242 188.795 26.2508 188.825 25.328H192.72ZM207.878 28.8217C207.275 29.4914 206.394 30.0309 205.233 30.4402C204.072 30.8494 202.8 31.0541 201.416 31.0541C199.287 31.0541 197.587 30.403 196.315 29.1007C195.042 27.7985 194.361 25.9866 194.272 23.6649L194.261 22.2585C194.261 20.6586 194.544 19.2634 195.109 18.0728C195.675 16.8748 196.482 15.9558 197.531 15.3158C198.588 14.6684 199.808 14.3447 201.192 14.3447C203.216 14.3447 204.786 14.8098 205.903 15.74C207.026 16.6627 207.681 18.043 207.867 19.881H204.094C203.96 18.9732 203.67 18.3258 203.224 17.9389C202.777 17.5519 202.145 17.3585 201.326 17.3585C200.344 17.3585 199.585 17.7752 199.049 18.6086C198.513 19.442 198.242 20.6326 198.234 22.1804V23.1626C198.234 24.7848 198.51 26.0052 199.06 26.8237C199.618 27.6348 200.493 28.0404 201.683 28.0404C202.703 28.0404 203.462 27.8134 203.96 27.3595V24.8369H201.237V22.1469H207.878V28.8217ZM214.33 30.8308H210.423V14.5791H214.33V30.8308ZM220.971 27.8171H227.791V30.8308H217.053V14.5791H220.971V27.8171ZM233.361 27.8171H240.181V30.8308H229.443V14.5791H233.361V27.8171Z" fill="#FF0079"/>
</svg>
