<?xml version="1.0" encoding="iso-8859-1"?>
<!-- Generator: Adobe Illustrator 19.0.0, SVG Export Plug-In . SVG Version: 6.00 Build 0)  -->
<svg version="1.1" id="Capa_1" xmlns="http://www.w3.org/2000/svg" xmlns:xlink="http://www.w3.org/1999/xlink" x="0px" y="0px"
	 viewBox="0 0 512 512" style="enable-background:new 0 0 512 512;" xml:space="preserve">
<path style="fill:#0A4EAF;" d="M459.5,240h-212c-24.853,0-45-20.147-45-45V45c0-24.853,20.147-45,45-45h212
	c24.853,0,45,20.147,45,45v150C504.5,219.853,484.353,240,459.5,240z"/>
<path style="fill:#E1E4FB;" d="M247.5,210c-8.276,0-15-6.724-15-15V45c0-8.276,6.724-15,15-15h212c8.276,0,15,6.724,15,15v150
	c0,8.276-6.724,15-15,15H247.5z"/>
<path style="fill:#4DBBEB;" d="M172.5,45c0,24.899-20.099,45-45,45s-45-20.101-45-45c0-24.901,20.099-45,45-45
	S172.5,20.099,172.5,45z"/>
<path style="fill:#08469C;" d="M304.352,187.582c-5.508,0-10.796-3.032-13.433-8.291c-3.706-7.412-0.703-16.421,6.709-20.127
	l93.164-46.582c7.427-3.677,16.406-0.703,20.127,6.709c3.706,7.412,0.703,16.421-6.709,20.127L311.046,186
	C308.892,187.069,306.606,187.582,304.352,187.582z"/>
<path style="fill:#4DBBEB;" d="M319.201,166.5c-7.2-14.7-24.901-21-40.201-13.2L238.5,173.399l-44.7-44.7
	c-5.7-5.7-13.2-8.699-21.301-8.699h-79h-26c-32.999,0-60,26.999-60,60v90c0,19.799,17.401,36.299,45,26.4V317v165
	c0,16.5,13.5,30,30,30s30-13.5,30-30V375c0-8.401,6.599-15,15-15s15,6.599,15,15v107c0,16.5,13.5,30,30,30s30-13.5,30-30V231
	l20.099,7.2c8.401,2.999,16.201,2.1,23.401-1.5l60-30C320.701,199.499,326.701,181.5,319.201,166.5z"/>
<path style="fill:#159CE4;" d="M306,206.7l-60,30c-7.2,3.6-15,4.499-23.401,1.5L202.5,231v251c0,16.5-13.5,30-30,30s-30-13.5-30-30
	V375c0-8.401-6.599-15-15-15V120h45c8.101,0,15.601,2.999,21.301,8.699l44.7,44.7L279,153.3c15.3-7.8,33.001-1.5,40.201,13.2
	C326.701,181.5,320.701,199.499,306,206.7z"/>
<path style="fill:#4596E6;" d="M172.5,45c0,24.899-20.099,45-45,45V0C152.401,0,172.5,20.099,172.5,45z"/>
<g>
</g>
<g>
</g>
<g>
</g>
<g>
</g>
<g>
</g>
<g>
</g>
<g>
</g>
<g>
</g>
<g>
</g>
<g>
</g>
<g>
</g>
<g>
</g>
<g>
</g>
<g>
</g>
<g>
</g>
</svg>
