<svg height="464pt" viewBox="0 0 464 464" width="464pt" xmlns="http://www.w3.org/2000/svg"><path d="m392 32c0 17.671875-14.328125 32-32 32s-32-14.328125-32-32 14.328125-32 32-32 32 14.328125 32 32zm0 0" fill="#57a4ff"/><path d="m168 184c0 17.671875-14.328125 32-32 32s-32-14.328125-32-32 14.328125-32 32-32 32 14.328125 32 32zm0 0" fill="#7ed63e"/><path d="m56 112 16-40 40-16-40-16-16-40-16 40-40 16 40 16zm0 0" fill="#ff3051"/><path d="m360 424 40-16-40-16-16-40-16 40-40 16 40 16 16 40zm0 0" fill="#ffcd00"/><path d="m169.375 79.996094 22.628906-22.628906 22.625 22.628906-22.625 22.628906zm0 0" fill="#f15a29"/><path d="m417.375 352 22.625-22.628906 22.628906 22.628906-22.628906 22.625zm0 0" fill="#ff9811"/><path d="m115.28125 315.28125c3.039062-2.964844 4.742188-7.035156 4.71875-11.28125-.027344-8.824219-7.175781-15.972656-16-16h-40v-16h-32v32c0 8.835938 7.164062 16 16 16h56c4.246094.023438 8.316406-1.679688 11.28125-4.71875zm0 0" fill="#7ed63e"/><path d="m219.953125 160.519531c-4.78125-1.199219-9.847656-.132812-13.742187 2.886719-3.894532 3.023438-6.183594 7.664062-6.210938 12.59375v88h16c8.835938 0 16-7.164062 16-16v-71.121094c.15625-7.554687-4.789062-14.269531-12.046875-16.359375zm0 0" fill="#7ed63e"/><path d="m112 408-32 56h32l32-56-16-56h-31.929688zm0 0" fill="#4e901e"/><path d="m194.910156 352h-34.910156l16 48-8 64h32l8-64zm0 0" fill="#4e901e"/><path d="m184 312v-48h16v-32h-136c-17.671875 0-32 14.328125-32 32v8h32c0-4.417969 3.582031-8 8-8h24v24h8c8.824219.027344 15.972656 7.175781 16 16-.066406 8.808594-7.191406 15.933594-16 16h-8v31.761719l.070312.238281h98.839844zm0 0" fill="#5eac24"/><path d="m296 72v-48c0-8.835938-7.164062-16-16-16s-16 7.164062-16 16v72c0 8.835938 7.164062 16 16 16h16zm0 0" fill="#57a4ff"/><path d="m448 80h-32v32h16v40c0 8.835938 7.164062 16 16 16s16-7.164062 16-16v-56c0-8.835938-7.164062-16-16-16zm0 0" fill="#57a4ff"/><path d="m283.199219 198.535156c-2.078125 2.769532-3.199219 6.140625-3.199219 9.601563v87.863281h32v-79.679688c0-4.011718 1.507812-7.878906 4.222656-10.832031l19.777344-21.488281h32v112h32v-136h-88zm0 0" fill="#006df0"/><path d="m416 112v-32h-120v32h16v48h88v-48zm0 0" fill="#2488ff"/></svg>