<?xml version="1.0" encoding="iso-8859-1"?>
<!-- Generator: Adobe Illustrator 19.0.0, SVG Export Plug-In . SVG Version: 6.00 Build 0)  -->
<svg version="1.1" id="Layer_1" xmlns="http://www.w3.org/2000/svg" xmlns:xlink="http://www.w3.org/1999/xlink" x="0px" y="0px"
	 viewBox="0 0 504.079 504.079" style="enable-background:new 0 0 504.079 504.079;" xml:space="preserve">
<path style="fill:#324D5B;" d="M502.519,328.249c-11.815-91.372-61.046-191.015-63.015-195.348
	c-0.788-1.575-2.363-3.151-3.938-3.938l-7.483-3.151l-2.363-8.665c0-0.788-0.394-1.182-0.788-1.969
	c-0.394-0.788-5.514-10.634-19.692-16.148c-12.997-5.12-45.686-16.542-65.378-16.542c-6.695,0-12.209,1.182-15.754,3.938
	c-2.757,1.182-14.572,11.815-25.994,11.815h-94.523c-11.028,0-23.237-10.24-25.994-11.815c-3.938-2.757-9.058-3.938-15.754-3.938
	c-19.692,0-52.382,11.422-65.378,16.542c-14.178,5.514-19.298,15.36-19.692,16.148c-0.394,0.394-0.394,1.182-0.788,1.969
	l-2.363,9.058l-5.514,3.151c-1.575,0.788-2.757,1.969-3.545,3.545c-1.969,4.332-51.2,103.975-63.015,195.348
	c-4.332,34.265,0.394,59.471,14.572,75.618c13.785,15.36,31.902,17.723,39.385,17.723h5.908c10.24,0,24.812-7.877,72.862-59.471
	c4.726-5.12,8.271-7.877,10.634-10.24c7.089-7.089,21.662-9.452,32.295-9.452h150.449c10.634,0,25.6,2.363,32.295,9.452
	c2.363,2.363,5.908,5.12,10.634,10.24c48.049,51.594,62.622,59.471,72.862,59.471h5.908c7.089,0,25.6-1.969,39.385-17.723
	C502.125,387.72,506.851,362.12,502.519,328.249z"/>
<path style="fill:#1D323D;" d="M439.504,132.902c-0.788-1.575-2.363-3.151-3.938-3.938l-7.483-3.151l-2.363-8.665
	c0-0.788-0.394-1.182-0.788-1.969c-0.394-0.788-5.514-10.634-19.692-16.148c-12.997-5.12-45.686-16.542-65.378-16.542
	c-6.695,0-12.209,1.182-15.754,3.938c-2.757,1.182-14.572,11.815-25.994,11.815h-94.523c-11.028,0-23.237-10.24-25.994-11.815
	c-3.938-2.757-9.058-3.938-15.754-3.938c-19.692,0-52.382,11.422-65.378,16.542c-14.178,5.514-19.298,15.36-19.692,16.148
	c-0.394,0.394-0.394,1.182-0.788,1.969l-2.363,9.058l-5.514,3.151c-1.575,0.788-2.757,1.969-3.545,3.545
	c-0.394,1.182-4.726,9.058-10.24,22.055l36.628-18.511c51.988-24.812,70.498-10.634,72.074-9.452
	c1.182,1.575,8.271,11.028,25.206,27.569c16.148,16.148,23.631,18.511,26.782,18.511h69.317c3.545,0,11.028-2.757,26.388-18.511
	c16.542-16.542,23.631-25.6,24.812-27.569c1.969-1.575,21.268-16.148,76.012,11.422c-0.788-0.788,23.237,11.422,39.385,19.692
	C444.624,143.536,440.291,134.083,439.504,132.902z"/>
<path style="fill:#597583;" d="M372.156,216.397c-7.483,0-13.785,6.302-13.785,13.785s6.302,13.785,13.785,13.785
	s13.785-6.302,13.785-13.785S379.639,216.397,372.156,216.397z M403.664,184.889c-7.483,0-13.785,6.302-13.785,13.785
	s6.302,13.785,13.785,13.785s13.785-6.302,13.785-13.785S411.147,184.889,403.664,184.889z M340.648,184.889
	c-7.483,0-13.785,6.302-13.785,13.785s6.302,13.785,13.785,13.785s13.785-6.302,13.785-13.785S348.131,184.889,340.648,184.889z
	 M372.156,153.382c-7.483,0-13.785,6.302-13.785,13.785s6.302,13.785,13.785,13.785s13.785-6.302,13.785-13.785
	C385.94,159.683,379.639,153.382,372.156,153.382z"/>
<path style="fill:#B8C4CB;" d="M252.033,121.874c8.665,0,15.754,7.089,15.754,15.754c0,8.665-7.089,15.754-15.754,15.754
	c-8.665,0-15.754-7.089-15.754-15.754C236.279,128.963,243.368,121.874,252.033,121.874z"/>
<path style="fill:#4F6B79;" d="M222.888,279.412H208.71v14.572c0,3.151-2.363,5.514-5.514,5.514h-12.603
	c-3.151,0-5.514-2.363-5.514-5.514v-14.572h-14.178c-3.151,0-5.514-2.363-5.514-5.514v-12.603c0-3.151,2.363-5.514,5.514-5.514
	h14.178v-14.178c0-3.151,2.363-5.514,5.514-5.514h12.603c3.151,0,5.514,2.363,5.514,5.514v14.178h14.178
	c3.151,0,5.514,2.363,5.514,5.514v12.603C228.402,277.049,226.039,279.412,222.888,279.412z"/>
<path style="fill:#2D4552;" d="M299.294,228.212c21.662,0,39.385,17.723,39.385,39.385c0,21.662-17.723,39.385-39.385,39.385
	c-21.662,0-39.385-17.723-39.385-39.385C259.91,245.936,277.633,228.212,299.294,228.212z"/>
<path style="fill:#4F6B79;" d="M299.294,240.028c15.36,0,27.569,12.209,27.569,27.569s-12.209,27.569-27.569,27.569
	c-15.36,0-27.569-12.209-27.569-27.569C271.725,252.631,283.934,240.028,299.294,240.028z"/>
<path style="fill:#2D4552;" d="M126.002,157.32c21.662,0,39.385,17.723,39.385,39.385s-17.723,39.385-39.385,39.385
	s-39.385-17.723-39.385-39.385S104.34,157.32,126.002,157.32z"/>
<path style="fill:#4F6B79;" d="M126.002,169.136c15.36,0,27.569,12.209,27.569,27.569s-12.209,27.569-27.569,27.569
	s-27.569-12.209-27.569-27.569C98.433,181.739,110.642,169.136,126.002,169.136z"/>
<path style="fill:#3F5966;" d="M299.294,251.843c8.665,0,15.754,7.089,15.754,15.754s-7.089,15.754-15.754,15.754
	s-15.754-7.089-15.754-15.754S290.63,251.843,299.294,251.843z M126.002,180.951c8.665,0,15.754,7.089,15.754,15.754
	s-7.089,15.754-15.754,15.754s-15.754-7.089-15.754-15.754C110.248,188.04,117.337,180.951,126.002,180.951z"/>
<g>
</g>
<g>
</g>
<g>
</g>
<g>
</g>
<g>
</g>
<g>
</g>
<g>
</g>
<g>
</g>
<g>
</g>
<g>
</g>
<g>
</g>
<g>
</g>
<g>
</g>
<g>
</g>
<g>
</g>
</svg>
