<svg width="2871" height="645" viewBox="0 0 2871 645" fill="none" xmlns="http://www.w3.org/2000/svg">
<mask id="mask0" mask-type="alpha" maskUnits="userSpaceOnUse" x="0" y="0" width="2871" height="645">
<path d="M2871 0.5H0V645L2871 0.5Z" fill="url(#paint0_linear)"/>
</mask>
<g mask="url(#mask0)">
<path d="M2871 0.5H0V645L2871 0.5Z" fill="url(#paint1_linear)"/>
<g style="mix-blend-mode:overlay" opacity="0.4">
<path d="M852.099 240.564C-116.379 709.633 0.856201 196.729 180.534 -118.357C33.1652 -173.398 -369.576 -145.647 -801.594 405.687C-1341.62 1094.85 -676.973 1170 708.687 568.833C1817.21 87.899 2008.63 827.888 1965.77 1258C2238.09 1118.58 2745.93 767.97 2598.76 480.833C2414.8 121.912 2062.7 -345.772 852.099 240.564Z" fill="#C7FFAA"/>
</g>
<g style="mix-blend-mode:overlay" opacity="0.4">
<path d="M1142.11 576.126C28.6912 198.052 513.46 -111.089 895.022 -218.401C822.6 -374.295 487.963 -661.701 -271.201 -564.171C-1220.16 -442.257 -760.71 126.153 778.65 721.519C2010.14 1197.81 1591.26 1920.46 1227.89 2222.24C1546.73 2322.7 2210.88 2439.52 2316.7 2103.19C2448.97 1682.77 2533.89 1048.72 1142.11 576.126Z" fill="#C7FFAA"/>
</g>
<g style="mix-blend-mode:overlay" opacity="0.4">
<path d="M863.76 115.211C103.77 483.477 195.768 80.7956 336.765 -166.578C221.121 -209.791 -94.9203 -188.003 -433.936 244.849C-857.705 785.914 -336.143 844.911 751.221 372.935C1621.11 -4.64661 1771.32 576.319 1737.69 914C1951.38 804.545 2349.9 529.277 2234.41 303.846C2090.05 22.0573 1813.75 -345.122 863.76 115.211Z" fill="#C7FFAA"/>
</g>
</g>
<defs>
<linearGradient id="paint0_linear" x1="871" y1="119.5" x2="977.5" y2="406.5" gradientUnits="userSpaceOnUse">
<stop stop-color="#7AE0E7"/>
<stop offset="1" stop-color="#C7FFAA"/>
</linearGradient>
<linearGradient id="paint1_linear" x1="1002" y1="78.5" x2="1051" y2="504.5" gradientUnits="userSpaceOnUse">
<stop stop-color="#3EE1EC"/>
<stop offset="1" stop-color="#B2FF8A"/>
</linearGradient>
</defs>
</svg>
