<svg width="1228" height="652" viewBox="0 0 1228 652" fill="none" xmlns="http://www.w3.org/2000/svg">
<mask id="mask0" mask-type="alpha" maskUnits="userSpaceOnUse" x="-80" y="-224" width="1308" height="876">
<path d="M1228 -224H-62L-79.5 652L1228 245V-224Z" fill="url(#paint0_linear)"/>
</mask>
<g mask="url(#mask0)">
<path d="M1228 0H0V652L1228 349.073V0Z" fill="url(#paint1_linear)"/>
<g style="mix-blend-mode:overlay" opacity="0.4">
<path d="M543.742 80.4332C54.1421 317.633 113.409 58.2666 204.242 -101.067C129.742 -128.9 -73.8579 -114.867 -292.258 163.933C-565.258 512.433 -229.258 550.433 471.242 246.433C1031.64 3.23326 1128.41 377.433 1106.74 594.933C1244.41 524.433 1501.14 347.133 1426.74 201.933C1333.74 20.4333 1155.74 -216.067 543.742 80.4332Z" fill="#C7FFAA"/>
</g>
<g style="mix-blend-mode:overlay" opacity="0.4">
<path d="M-210.258 563.433C-699.858 800.633 -640.591 541.267 -549.758 381.933C-624.258 354.1 -827.858 368.133 -1046.26 646.933C-1319.26 995.433 -983.258 1033.43 -282.758 729.433C277.642 486.233 374.409 860.433 352.742 1077.93C490.409 1007.43 747.142 830.133 672.742 684.933C579.742 503.433 401.742 266.933 -210.258 563.433Z" fill="#C7FFAA"/>
</g>
</g>
<defs>
<linearGradient id="paint0_linear" x1="893.5" y1="-810.501" x2="567.75" y2="497.001" gradientUnits="userSpaceOnUse">
<stop stop-color="#30D0E5"/>
<stop offset="0.67457" stop-color="#7AE7C8"/>
<stop offset="1" stop-color="#C7FFAA"/>
</linearGradient>
<linearGradient id="paint1_linear" x1="913.839" y1="-436.528" x2="717.43" y2="558.262" gradientUnits="userSpaceOnUse">
<stop stop-color="#30D0E5"/>
<stop offset="0.67457" stop-color="#7AE7C8"/>
<stop offset="1" stop-color="#C7FFAA"/>
</linearGradient>
</defs>
</svg>
